HIERARCHY
ROOT SpineBase
{
  OFFSET 0.000000 0.000000 0.000000
  CHANNELS 6 Xposition Yposition Zposition Zrotation Xrotation Yrotation
  JOINT SpineMid
  {
    OFFSET 0.000000 26.306036 0.000000
    CHANNELS 3 Zrotation Xrotation Yrotation
    JOINT SpineShoulder
    {
      OFFSET -0.132025 19.721939 -0.712591
      CHANNELS 3 Zrotation Xrotation Yrotation
      JOINT Neck
      {
        OFFSET -0.070463 6.556980 -0.532499
        CHANNELS 3 Zrotation Xrotation Yrotation
        JOINT Head
        {
          OFFSET 3.009567 11.867349 0.748270
          CHANNELS 3 Zrotation Xrotation Yrotation
          End Site
          {
            OFFSET 0 0 0
          }
        }
      }
      JOINT ShoulderLeft
      {
        OFFSET -11.692890 -2.253230 -6.306322
        CHANNELS 3 Zrotation Xrotation Yrotation
        JOINT ElbowLeft
        {
          OFFSET -6.793966 -16.497104 -2.810631
          CHANNELS 3 Zrotation Xrotation Yrotation
          JOINT WristLeft
          {
            OFFSET 20.767233 2.067117 -7.586200
            CHANNELS 3 Zrotation Xrotation Yrotation
            JOINT HandLeft
            {
              OFFSET 4.899652 1.178590 0.582929
              CHANNELS 3 Zrotation Xrotation Yrotation
              JOINT HandTipLeft
              {
                OFFSET 5.561070 -0.117538 1.578140
                CHANNELS 3 Zrotation Xrotation Yrotation
                End Site
                {
                  OFFSET 0 0 0
                }
              }
              JOINT ThumbLeft
              {
                OFFSET -0.533559 -0.789367 -4.862493
                CHANNELS 3 Zrotation Xrotation Yrotation
                End Site
                {
                  OFFSET 0 0 0
                }
              }
            }
          }
        }
      }
      JOINT ShoulderRight
      {
        OFFSET 11.995213 -1.826528 4.453851
        CHANNELS 3 Zrotation Xrotation Yrotation
        JOINT ElbowRight
        {
          OFFSET 4.848521 -14.386457 4.070433
          CHANNELS 3 Zrotation Xrotation Yrotation
          JOINT WristRight
          {
            OFFSET -14.198195 1.740427 -17.953934
            CHANNELS 3 Zrotation Xrotation Yrotation
            JOINT HandRight
            {
              OFFSET -3.401452 -1.351560 -3.420766
              CHANNELS 3 Zrotation Xrotation Yrotation
              JOINT HandTipRight
              {
                OFFSET -5.533409 -2.260740 -3.011969
                CHANNELS 3 Zrotation Xrotation Yrotation
                End Site
                {
                  OFFSET 0 0 0
                }
              }
              JOINT ThumbRight
              {
                OFFSET -3.826900 -0.683988 -0.091817
                CHANNELS 3 Zrotation Xrotation Yrotation
                End Site
                {
                  OFFSET 0 0 0
                }
              }
            }
          }
        }
      }
    }
  }
  JOINT HipLeft
  {
    OFFSET -5.310084 1.195715 -5.342786
    CHANNELS 3 Zrotation Xrotation Yrotation
    JOINT KneeLeft
    {
      OFFSET -3.459477 -29.787995 -1.171612
      CHANNELS 3 Zrotation Xrotation Yrotation
      JOINT AnkleLeft
      {
        OFFSET -0.919783 -33.058674 7.942107
        CHANNELS 3 Zrotation Xrotation Yrotation
        JOINT FootLeft
        {
          OFFSET 5.768299 -7.078917 0.279544
          CHANNELS 3 Zrotation Xrotation Yrotation
          End Site
          {
            OFFSET 0 0 0
          }
        }
      }
    }
  }
  JOINT HipRight
  {
    OFFSET 5.068453 0.471016 -0.884662
    CHANNELS 3 Zrotation Xrotation Yrotation
    JOINT KneeRight
    {
      OFFSET 0.026040 -28.870542 1.295821
      CHANNELS 3 Zrotation Xrotation Yrotation
      JOINT AnkleRight
      {
        OFFSET -3.888253 -33.186528 4.855514
        CHANNELS 3 Zrotation Xrotation Yrotation
        JOINT FootRight
        {
          OFFSET 3.071237 -1.873038 -11.452783
          CHANNELS 3 Zrotation Xrotation Yrotation
          End Site
          {
            OFFSET 0 0 0
          }
        }
      }
    }
  }
}
MOTION
Frames: 6
Frame Time: 0.033333
15.168829 73.209305 361.357449 -0.000000 0.000000 -23.246048 -0.000000 0.000000 23.246048 -0.000000 0.000000 0.000000 -0.000000 0.000000 0.000000 0.000000 0.000000 0.000000 -0.000000 0.000000 0.000000 -0.000000 0.000000 0.000000 -0.000000 0.000000 0.000000 -0.000000 0.000000 0.000000 0.000000 0.000000 0.000000 0.000000 0.000000 0.000000 -0.000000 0.000000 0.000000 -0.000000 0.000000 0.000000 -0.000000 0.000000 0.000000 -0.000000 0.000000 0.000000 0.000000 0.000000 0.000000 0.000000 0.000000 0.000000 -0.000000 0.000000 23.246048 -0.000000 0.000000 0.000000 -0.000000 0.000000 0.000000 0.000000 0.000000 0.000000 -0.000000 0.000000 23.246048 -0.000000 0.000000 0.000000 -0.000000 0.000000 0.000000 0.000000 0.000000 0.000000
15.267663 73.241387 361.276809 0.127129 0.073833 -22.713717 -0.088761 -0.117195 22.713545 -0.000000 0.000000 0.000000 0.772905 -0.309373 0.031870 0.000000 0.000000 0.000000 -1.036305 -0.853022 0.518873 0.245514 0.498011 0.053967 -0.852857 -0.487485 3.527021 4.345816 0.026382 1.379714 0.000000 0.000000 0.000000 0.000000 0.000000 0.000000 -0.000000 0.000000 0.000000 -0.000000 0.000000 0.000000 -2.605812 1.858492 1.785363 4.703981 -1.696044 -5.392739 0.000000 0.000000 0.000000 0.000000 0.000000 0.000000 -0.088761 -0.117195 22.713545 -0.000000 0.000000 0.000000 -0.272126 3.768479 3.079302 0.000000 0.000000 0.000000 -0.088761 -0.117195 22.713545 -0.000000 0.000000 0.000000 -0.452515 -2.890624 -2.365186 0.000000 0.000000 0.000000
15.356887 73.267803 361.208787 0.234662 0.135241 -22.212808 -0.166120 -0.213917 22.212221 -0.000000 0.000000 0.000000 1.397102 -0.598059 0.071109 0.000000 0.000000 0.000000 -1.940616 -1.613831 0.963555 0.446204 0.925175 0.144408 -1.530690 -1.033149 6.778406 8.742420 -0.213344 3.901569 0.000000 0.000000 0.000000 0.000000 0.000000 0.000000 -0.000000 0.000000 0.000000 -0.000000 0.000000 0.000000 -5.128860 3.537555 3.561309 9.069514 -3.642439 -10.084089 0.000000 0.000000 0.000000 0.000000 0.000000 0.000000 -0.166120 -0.213917 22.212221 0.363229 0.731550 0.064695 -0.962171 6.759687 6.086858 0.000000 0.000000 0.000000 -0.166120 -0.213917 22.212221 -0.901131 0.368703 -0.172069 -0.086882 -6.031381 -4.493944 0.000000 0.000000 0.000000
15.436503 73.288553 361.153383 0.322559 0.184202 -21.744955 -0.231368 -0.290592 21.743850 -0.000000 0.000000 0.000000 1.873773 -0.866283 0.116241 0.000000 0.000000 0.000000 -2.709496 -2.274268 1.336089 0.608858 1.283138 0.264667 -2.009641 -1.588374 9.656093 12.923820 -0.540996 7.390028 0.000000 0.000000 0.000000 0.000000 0.000000 0.000000 -0.000000 0.000000 0.000000 -0.000000 0.000000 0.000000 -7.496401 5.005256 5.267781 12.973315 -5.697468 -13.976026 0.000000 0.000000 0.000000 0.000000 0.000000 0.000000 -0.231368 -0.290592 21.743850 0.513379 0.999175 0.091262 -1.460696 10.057515 9.050812 0.000000 0.000000 0.000000 -0.231368 -0.290592 21.743850 -1.215091 0.528564 -0.233977 -0.333133 -8.583713 -6.449371 0.000000 0.000000 0.000000
15.506510 73.303638 361.110597 0.390791 0.220696 -21.311620 -0.283863 -0.347629 21.310006 -0.000000 0.000000 0.000000 2.204149 -1.114373 0.165969 0.000000 0.000000 0.000000 -3.340534 -2.827785 1.638714 0.740674 1.574372 0.407479 -2.284047 -2.108913 12.091184 16.532082 -0.773934 11.365063 0.000000 0.000000 0.000000 0.000000 0.000000 0.000000 -0.000000 0.000000 0.000000 -0.000000 0.000000 0.000000 -9.638879 6.242974 6.844963 16.329728 -7.718594 -17.029784 0.000000 0.000000 0.000000 0.000000 0.000000 0.000000 -0.283863 -0.347629 21.310006 0.642497 1.201044 0.114511 -1.902053 13.164400 11.843497 0.000000 0.000000 0.000000 -0.283863 -0.347629 21.310006 -1.442759 0.673182 -0.281324 -0.572399 -10.474384 -7.884593 0.000000 0.000000 0.000000
15.566907 73.313056 361.080428 0.439329 0.244707 -20.914080 -0.323040 -0.385405 20.912055 -0.000000 0.000000 0.000000 2.389417 -1.342718 0.219172 0.000000 0.000000 0.000000 -3.832174 -3.269356 1.873635 0.848569 1.801812 0.565531 -2.361790 -2.560116 14.042613 19.200906 -0.805056 15.182268 0.000000 0.000000 0.000000 0.000000 0.000000 0.000000 -0.000000 0.000000 0.000000 -0.000000 0.000000 0.000000 -11.494915 7.244448 8.238285 19.085044 -9.580840 -19.251544 0.000000 0.000000 0.000000 0.000000 0.000000 0.000000 -0.323040 -0.385405 20.912055 0.750565 1.337045 0.134763 -2.220634 16.001916 14.377159 0.000000 0.000000 0.000000 -0.323040 -0.385405 20.912055 -1.586637 0.803275 -0.314960 -0.685070 -11.491075 -8.577046 0.000000 0.000000 0.000000
